0
SECTION
2
HEADER
9
$INSUNITS
70
4
9
$ACADVER
1
AC1014
9
$HANDSEED
5
FFFF
0
ENDSEC
0
SECTION
2
TABLES
0
TABLE
2
VPORT
5
8
100
AcDbSymbolTable
0
ENDTAB
0
TABLE
2
LTYPE
5
5
100
AcDbSymbolTable
0
LTYPE
5
14
100
AcDbSymbolTableRecord
100
AcDbLinetypeTableRecord
2
BYBLOCK
70
0
0
LTYPE
5
15
100
AcDbSymbolTableRecord
100
AcDbLinetypeTableRecord
2
BYLAYER
70
0
0
ENDTAB
0
TABLE
2
LAYER
5
2
100
AcDbSymbolTable
70
2
0
LAYER
5
50
100
AcDbSymbolTableRecord
100
AcDbLayerTableRecord
2
0
70
0
6
CONTINUOUS
0
ENDTAB
0
TABLE
2
STYLE
5
3
100
AcDbSymbolTable
70
1
0
STYLE
5
11
100
AcDbSymbolTableRecord
100
AcDbTextStyleTableRecord
2
STANDARD
70
0
0
ENDTAB
0
TABLE
2
VIEW
5
6
100
AcDbSymbolTable
70
0
0
ENDTAB
0
TABLE
2
UCS
5
7
100
AcDbSymbolTable
70
0
0
ENDTAB
0
TABLE
2
APPID
5
9
100
AcDbSymbolTable
70
2
0
APPID
5
12
100
AcDbSymbolTableRecord
100
AcDbRegAppTableRecord
2
ACAD
70
0
0
ENDTAB
0
TABLE
2
DIMSTYLE
5
A
100
AcDbSymbolTable
70
1
0
ENDTAB
0
TABLE
2
BLOCK_RECORD
5
1
100
AcDbSymbolTable
70
1
0
BLOCK_RECORD
5
1F
100
AcDbSymbolTableRecord
100
AcDbBlockTableRecord
2
*MODEL_SPACE
0
BLOCK_RECORD
5
1B
100
AcDbSymbolTableRecord
100
AcDbBlockTableRecord
2
*PAPER_SPACE
0
ENDTAB
0
ENDSEC
0
SECTION
2
BLOCKS
0
BLOCK
5
20
100
AcDbEntity
100
AcDbBlockBegin
2
*MODEL_SPACE
0
ENDBLK
5
21
100
AcDbEntity
100
AcDbBlockEnd
0
BLOCK
5
1C
100
AcDbEntity
100
AcDbBlockBegin
2
*PAPER_SPACE
0
ENDBLK
5
1D
100
AcDbEntity
100
AcDbBlockEnd
0
ENDSEC
0
SECTION
2
ENTITIES
0
LINE
5
100
100
AcDbEntity
8
0
100
AcDbLine
10
2.3151500976586052e-22
20
0.3006000000000002
30
0
11
0.12255000000000001
21
0.3006000000000002
31
0
0
LINE
5
101
100
AcDbEntity
8
0
100
AcDbLine
10
2.3151500976586052e-22
20
0.3006000000000002
30
0
11
-0.12255000000000002
21
0.3006000000000002
31
0
0
LINE
5
102
100
AcDbEntity
8
0
100
AcDbLine
10
2.3151500976586052e-22
20
0.60120000000000018
30
0
11
-0.064750000000000002
21
0.60120000000000018
31
0
0
LINE
5
103
100
AcDbEntity
8
0
100
AcDbLine
10
2.3151500976586052e-22
20
0.60120000000000018
30
0
11
0.064750000000000002
21
0.60120000000000018
31
0
0
LINE
5
104
100
AcDbEntity
8
0
100
AcDbLine
10
0
20
0
30
0
11
0.19769999999999999
21
0
31
0
0
LINE
5
105
100
AcDbEntity
8
0
100
AcDbLine
10
0
20
0
30
0
11
-0.25
21
4.8148248609680896e-34
31
0
0
LINE
5
106
100
AcDbEntity
8
0
100
AcDbLine
10
4.6441910959032744e-19
20
0.8024
30
0
11
-0.025000001187436283
21
0.8024
31
0
0
LINE
5
107
100
AcDbEntity
8
0
100
AcDbLine
10
4.6441910959032744e-19
20
0.8024
30
0
11
0
21
0
31
0
0
LINE
5
108
100
AcDbEntity
8
0
100
AcDbLine
10
4.6441910959032744e-19
20
0.8024
30
0
11
-0.12255000000000002
21
0.3006000000000002
31
0
0
SPLINE
5
109
100
AcDbEntity
8
0
100
AcDbSpline
70
4
71
5
72
16
73
10
74
0
42
0.000000001
43
0.0000000001
44
0.0000000001
40
0
40
0
40
0
40
0
40
0
40
0
40
0.20000000000000001
40
0.40000000000000002
40
0.60000000000000009
40
0.80000000000000004
40
1
40
1
40
1
40
1
40
1
40
1
41
1
41
1
41
1
41
1
41
1
41
1
41
1
41
1
41
1
41
1
10
-0.12255000000000002
20
0.3006000000000002
30
0
10
-0.12255751258802872
20
0.30056842354241292
30
0
10
-0.12399979862838992
20
0.29613740122703397
30
0
10
-0.13044121405754794
20
0.27639987321207088
30
0
10
-0.14645359131251087
20
0.22822769142522858
30
0
10
-0.17504578515893116
20
0.14882382084318305
30
0
10
-0.20262963327719222
20
0.083322635304326292
30
0
10
-0.22547195641126888
20
0.039023718809664827
30
0
10
-0.24166335880404005
20
0.012504969218366618
30
0
10
-0.25
20
4.8148248609680896e-34
30
0
0
SPLINE
5
110
100
AcDbEntity
8
0
100
AcDbSpline
70
4
71
5
72
16
73
10
74
0
42
0.000000001
43
0.0000000001
44
0.0000000001
40
0
40
0
40
0
40
0
40
0
40
0
40
0.20000000000000001
40
0.40000000000000002
40
0.60000000000000009
40
0.80000000000000004
40
1
40
1
40
1
40
1
40
1
40
1
41
1
41
1
41
1
41
1
41
1
41
1
41
1
41
1
41
1
41
1
10
-0.12255000000000002
20
0.3006000000000002
30
0
10
-0.12255751258802872
20
0.30056842354241292
30
0
10
-0.12399979862838992
20
0.29613740122703397
30
0
10
-0.13044121405754794
20
0.27639987321207088
30
0
10
-0.14645359131251087
20
0.22822769142522858
30
0
10
-0.17504578515893116
20
0.14882382084318305
30
0
10
-0.20262963327719222
20
0.083322635304326292
30
0
10
-0.22547195641126888
20
0.039023718809664827
30
0
10
-0.24166335880404005
20
0.012504969218366618
30
0
10
-0.25
20
4.8148248609680896e-34
30
0
0
LINE
5
111
100
AcDbEntity
8
0
100
AcDbLine
10
0
20
0
30
0
11
0.19769999999999999
21
0
31
0
0
LINE
5
112
100
AcDbEntity
8
0
100
AcDbLine
10
2.3151500976586052e-22
20
0.3006000000000002
30
0
11
0.12255000000000001
21
0.3006000000000002
31
0
0
LINE
5
113
100
AcDbEntity
8
0
100
AcDbLine
10
4.6441910959032744e-19
20
0.8024
30
0
11
-0.025000001187436283
21
0.8024
31
0
0
LINE
5
114
100
AcDbEntity
8
0
100
AcDbLine
10
4.6441910959032744e-19
20
0.8024
30
0
11
0
21
0
31
0
0
LINE
5
115
100
AcDbEntity
8
0
100
AcDbLine
10
4.6441910959032744e-19
20
0.8024
30
0
11
-0.12255000000000002
21
0.3006000000000002
31
0
0
LINE
5
116
100
AcDbEntity
8
0
100
AcDbLine
10
0
20
0
30
0
11
-0.25
21
4.8148248609680896e-34
31
0
0
LINE
5
117
100
AcDbEntity
8
0
100
AcDbLine
10
2.3151500976586052e-22
20
0.60120000000000018
30
0
11
0.064750000000000002
21
0.60120000000000018
31
0
0
LINE
5
118
100
AcDbEntity
8
0
100
AcDbLine
10
2.3151500976586052e-22
20
0.3006000000000002
30
0
11
-0.12255000000000002
21
0.3006000000000002
31
0
0
LINE
5
119
100
AcDbEntity
8
0
100
AcDbLine
10
2.3151500976586052e-22
20
0.60120000000000018
30
0
11
-0.064750000000000002
21
0.60120000000000018
31
0
0
ENDSEC
0
SECTION
2
OBJECTS
0
DICTIONARY
5
C
100
AcDbDictionary
3
ACAD_GROUP
350
D
3
ACAD_MLINESTYLE
350
17
0
DICTIONARY
5
D
100
AcDbDictionary
0
DICTIONARY
5
1A
330
C
100
AcDbDictionary
0
DICTIONARY
5
17
100
AcDbDictionary
0
ENDSEC
0
EOF
